<svg width="24" height="24" viewBox="0 0 24 24" fill="none" xmlns="http://www.w3.org/2000/svg">
<path d="M24 7.535V17C24 17.7652 23.7077 18.5015 23.1827 19.0583C22.6578 19.615 21.9399 19.9501 21.176 19.995L21 20H7C6.23479 20 5.49849 19.7077 4.94174 19.1827C4.38499 18.6578 4.04989 17.9399 4.005 17.176L4 17V7.535L13.445 13.832L13.561 13.898C13.6977 13.9648 13.8478 13.9995 14 13.9995C14.1522 13.9995 14.3023 13.9648 14.439 13.898L14.555 13.832L24 7.535Z" fill="white"/>
<path d="M20.9999 4C22.0799 4 23.0269 4.57 23.5549 5.427L13.9999 11.797L4.44495 5.427C4.69568 5.01977 5.04016 4.6784 5.44965 4.43138C5.85915 4.18436 6.32178 4.03886 6.79895 4.007L6.99995 4H20.9999Z" fill="white"/>
</svg>
