<svg width="16" height="16" viewBox="0 0 16 16" fill="none" xmlns="http://www.w3.org/2000/svg">
<path fill-rule="evenodd" clip-rule="evenodd" d="M6.09024 8.41933L3.72076 7.62985C1.2406 6.80348 0 6.3903 0 5.63033C0 4.87142 1.2406 4.45718 3.72076 3.63081L12.6938 0.639442C14.4393 0.0576106 15.312 -0.233305 15.7726 0.227312C16.2333 0.687928 15.9423 1.56068 15.3616 3.30512L12.3692 12.2792C11.5428 14.7594 11.1296 16 10.3696 16C9.61073 16 9.19649 14.7594 8.37013 12.2792L7.5796 9.9108L12.1689 5.3215C12.3609 5.1227 12.4671 4.85645 12.4647 4.58008C12.4623 4.30372 12.3515 4.03935 12.156 3.84392C11.9606 3.64849 11.6963 3.53764 11.4199 3.53524C11.1435 3.53284 10.8773 3.63908 10.6785 3.83108L6.09024 8.41933Z" fill="white"/>
</svg>
