<svg width="20" height="20" viewBox="0 0 20 20" fill="none" xmlns="http://www.w3.org/2000/svg">
<path d="M14.6079 12.172C14.6079 13.012 14.8469 13.347 15.4719 13.347C16.865 13.347 17.7519 11.572 17.7519 8.62001C17.7519 4.10801 14.4639 1.94801 10.3589 1.94801C6.13595 1.94801 2.29495 4.78001 2.29495 10.132C2.29495 15.244 5.65495 18.028 10.8149 18.028C12.5669 18.028 13.7429 17.836 15.5419 17.236L15.9279 18.843C14.1519 19.42 12.254 19.587 10.7909 19.587C4.02295 19.587 0.397949 15.867 0.397949 10.131C0.397949 4.34701 4.59895 0.411011 10.3829 0.411011C16.4069 0.411011 19.5979 4.01101 19.5979 8.42701C19.5979 12.171 18.423 15.027 14.7269 15.027C13.0459 15.027 11.9429 14.355 11.7989 12.866C11.3669 14.522 10.2149 15.027 8.65395 15.027C6.56595 15.027 4.81395 13.418 4.81395 10.179C4.81395 6.91501 6.35095 4.89901 9.11095 4.89901C10.5749 4.89901 11.4869 5.47501 11.8929 6.38701L12.5899 5.11501H14.6059V12.172H14.6079ZM11.6569 9.00401C11.6569 7.68501 10.6719 7.13201 9.85595 7.13201C8.96795 7.13201 7.98495 7.85101 7.98495 9.96401C7.98495 11.644 8.72895 12.58 9.85595 12.58C10.6479 12.58 11.6569 12.076 11.6569 10.684V9.00401Z" fill="#A2AAB4"/>
</svg>
