<svg width="16" height="17" viewBox="0 0 16 17" fill="none" xmlns="http://www.w3.org/2000/svg">
<path d="M6.46154 2.73214V3.03571H9.53846V2.73214C9.53846 2.32958 9.37637 1.94351 9.08786 1.65886C8.79934 1.3742 8.40803 1.21429 8 1.21429C7.59197 1.21429 7.20066 1.3742 6.91214 1.65886C6.62363 1.94351 6.46154 2.32958 6.46154 2.73214ZM5.23077 3.03571V2.73214C5.23077 2.00753 5.52253 1.3126 6.04186 0.800226C6.56119 0.28785 7.26555 0 8 0C8.73445 0 9.43881 0.28785 9.95814 0.800226C10.4775 1.3126 10.7692 2.00753 10.7692 2.73214V3.03571H15.3846C15.5478 3.03571 15.7044 3.09968 15.8198 3.21354C15.9352 3.3274 16 3.48183 16 3.64286C16 3.80388 15.9352 3.95831 15.8198 4.07217C15.7044 4.18603 15.5478 4.25 15.3846 4.25H14.4566L13.2923 14.3091C13.2065 15.05 12.8472 15.7337 12.2832 16.23C11.7191 16.7263 10.9896 17.0004 10.2338 17H5.76615C5.01038 17.0004 4.2809 16.7263 3.71683 16.23C3.15276 15.7337 2.79355 15.05 2.70769 14.3091L1.54338 4.25H0.615385C0.452174 4.25 0.295649 4.18603 0.180242 4.07217C0.064835 3.95831 0 3.80388 0 3.64286C0 3.48183 0.064835 3.3274 0.180242 3.21354C0.295649 3.09968 0.452174 3.03571 0.615385 3.03571H5.23077ZM6.76923 6.98214C6.76923 6.82112 6.7044 6.66669 6.58899 6.55283C6.47358 6.43897 6.31706 6.375 6.15385 6.375C5.99064 6.375 5.83411 6.43897 5.7187 6.55283C5.6033 6.66669 5.53846 6.82112 5.53846 6.98214V13.0536C5.53846 13.2146 5.6033 13.369 5.7187 13.4829C5.83411 13.5967 5.99064 13.6607 6.15385 13.6607C6.31706 13.6607 6.47358 13.5967 6.58899 13.4829C6.7044 13.369 6.76923 13.2146 6.76923 13.0536V6.98214ZM9.84615 6.375C9.68294 6.375 9.52642 6.43897 9.41101 6.55283C9.2956 6.66669 9.23077 6.82112 9.23077 6.98214V13.0536C9.23077 13.2146 9.2956 13.369 9.41101 13.4829C9.52642 13.5967 9.68294 13.6607 9.84615 13.6607C10.0094 13.6607 10.1659 13.5967 10.2813 13.4829C10.3967 13.369 10.4615 13.2146 10.4615 13.0536V6.98214C10.4615 6.82112 10.3967 6.66669 10.2813 6.55283C10.1659 6.43897 10.0094 6.375 9.84615 6.375Z" fill="#D6DCE4"/>
</svg>
